<?xml version="1.0" standalone="no"?>
<!DOCTYPE svg PUBLIC "-//W3C//DTD SVG 20010904//EN"
 "http://www.w3.org/TR/2001/REC-SVG-20010904/DTD/svg10.dtd">
<svg version="1.0" xmlns="http://www.w3.org/2000/svg"
 width="1080.000000pt" height="1080.000000pt" viewBox="0 0 1080.000000 1080.000000"
 preserveAspectRatio="xMidYMid meet">

<g transform="translate(0.000000,1080.000000) scale(0.100000,-0.100000)"
fill="#000000" stroke="none">
<path d="M2223 10780 c-108 -25 -192 -66 -275 -134 -140 -116 -240 -308 -254
-491 l-6 -70 177 -245 c807 -1115 1615 -2123 2244 -2797 l105 -113 1179 0
1180 0 92 98 c621 659 1470 1715 2283 2840 179 247 164 210 141 362 -23 147
-105 298 -222 405 -78 73 -160 117 -268 145 -88 23 -118 25 -133 6 -17 -22
-356 -206 -625 -341 -820 -411 -1554 -662 -2136 -730 -150 -17 -442 -20 -583
-5 -598 65 -1353 322 -2212 756 -266 134 -583 309 -588 324 -4 12 2 13 -99
-10z"/>
<path d="M9110 5493 c0 -3028 3 -2832 -56 -3067 -13 -54 -23 -100 -21 -103 8
-8 181 156 265 251 398 453 664 1015 817 1720 108 500 133 1090 70 1638 -105
901 -458 1723 -964 2241 -52 53 -98 97 -103 97 -4 0 -8 -1250 -8 -2777z"/>
<path d="M1574 8158 c-216 -220 -393 -476 -551 -799 -385 -784 -525 -1738
-397 -2703 121 -918 491 -1722 1024 -2229 68 -64 125 -115 126 -114 2 2 -6 32
-17 67 -11 35 -32 125 -47 199 l-27 136 -5 2773 -5 2772 -101 -102z"/>
<path d="M3523 7176 c-141 -67 -207 -225 -153 -368 28 -75 71 -122 143 -158
92 -45 189 -43 272 5 200 116 199 394 -3 512 -36 22 -61 27 -126 30 -70 4 -88
1 -133 -21z"/>
<path d="M7057 7186 c-37 -14 -101 -57 -125 -86 -7 -8 -25 -37 -39 -65 -38
-71 -38 -178 -1 -251 78 -151 246 -207 396 -133 218 107 211 421 -12 525 -59
27 -157 32 -219 10z"/>
<path d="M6825 4773 c-30 -7 -72 -51 -78 -81 -9 -47 13 -218 39 -308 72 -249
254 -470 469 -570 253 -117 549 -92 772 65 235 166 373 418 398 726 5 66 3 86
-12 115 -23 44 -74 64 -127 49 -53 -15 -68 -45 -77 -157 -23 -273 -163 -492
-385 -600 -77 -38 -148 -54 -239 -54 -98 0 -164 16 -255 63 -212 109 -347 328
-367 592 -6 86 -22 130 -51 145 -25 13 -64 20 -87 15z"/>
<path d="M2385 3963 c-31 -7 -72 -51 -79 -85 -9 -46 12 -210 40 -307 93 -322
320 -546 634 -627 91 -23 287 -15 385 16 206 65 386 214 491 406 l41 75 46
-78 c135 -231 313 -364 566 -423 80 -19 277 -8 366 20 348 110 588 433 620
835 5 68 3 85 -13 115 -24 44 -74 63 -126 49 -53 -15 -68 -45 -78 -162 -27
-301 -207 -549 -458 -628 -48 -15 -92 -21 -165 -21 -73 0 -117 6 -165 21 -158
50 -296 173 -375 335 -52 106 -72 178 -84 304 -5 55 -15 101 -25 116 -14 23
-68 46 -106 46 -38 0 -92 -23 -107 -46 -10 -16 -19 -62 -25 -126 -25 -299
-207 -550 -458 -629 -90 -29 -240 -29 -330 0 -158 50 -296 173 -375 335 -52
105 -73 180 -81 286 -7 95 -20 137 -47 154 -27 17 -66 25 -92 19z"/>
<path d="M6532 2409 c-48 -14 -72 -59 -72 -139 -1 -339 -265 -650 -574 -676
-173 -15 -328 45 -461 180 -128 129 -197 286 -211 476 -10 128 -33 160 -114
160 -33 0 -48 -6 -71 -29 -28 -28 -29 -33 -29 -118 1 -294 163 -597 405 -758
261 -173 614 -170 872 6 96 66 204 183 265 287 l26 44 54 -84 c50 -76 142
-175 210 -228 97 -74 257 -137 385 -150 151 -16 280 9 428 81 292 142 494 471
495 807 0 79 -2 85 -29 113 -24 24 -38 29 -76 29 -38 0 -52 -5 -76 -29 -25
-25 -29 -37 -29 -83 -1 -74 -23 -191 -53 -270 -72 -197 -226 -350 -417 -414
-84 -28 -244 -26 -333 5 -89 30 -203 107 -267 179 -102 116 -180 314 -180 460
0 119 -57 177 -148 151z"/>
<path d="M4397 744 c-100 -24 -167 -62 -242 -138 -57 -57 -75 -84 -94 -136
-40 -113 -51 -178 -51 -327 l0 -143 506 0 506 0 -4 188 -4 188 -43 87 c-108
223 -341 338 -574 281z"/>
<path d="M6197 749 c-163 -32 -306 -162 -357 -326 -17 -55 -20 -93 -20 -244
l0 -179 486 0 487 0 -6 163 c-4 139 -9 174 -32 247 -33 102 -75 171 -141 229
-111 99 -263 139 -417 110z"/>
</g>
</svg>
